<svg data-name="Group 16" xmlns="http://www.w3.org/2000/svg" width="32.101" height="36" viewBox="0 0 32.101 36">
    <g data-name="Group 15">
        <path data-name="Path 6" d="M28.255 1.452A3.218 3.218 0 0 1 34.1 2.566l.075.361a4.067 4.067 0 0 1 7.915 1.308v.612a4.056 4.056 0 0 1-1.29 2.969 4.512 4.512 0 0 1 .843.434 4.45 4.45 0 0 1 1.927 2.837l.574 2.858 1.318 1.326h5.488a2.274 2.274 0 0 1 2.1 3.144h.57a2.9 2.9 0 0 1 2.81 2.172l.83 3.185a.7.7 0 1 1-1.361.355l-.83-3.185a1.5 1.5 0 0 0-1.449-1.12h-10.3a.7.7 0 0 1-.5-.208l-3.559-3.6a.7.7 0 0 1 1-.989l3.353 3.387h7.335a.869.869 0 0 0 0-1.738h-5.781a.7.7 0 0 1-.5-.207l-4.025-4.048a.7.7 0 1 1 1-.992l.7.707-.155-.77a3.07 3.07 0 1 0-6.012 1.246v.016l1.763 8.506a2.118 2.118 0 0 0 2.065 1.681h10a3.236 3.236 0 0 1 3.2 2.882.7.7 0 0 1 .035.1l2.154 8.266a.708.708 0 0 0 .685.529h1.633a.708.708 0 0 0 .685-.886L57.222 29.2a.7.7 0 1 1 1.361-.355l1.174 4.507A2.114 2.114 0 0 1 57.712 36h-1.633a2.114 2.114 0 0 1-2.046-1.581l-1.633-6.26a2.468 2.468 0 0 1-.1.106 3.309 3.309 0 0 1-2.347.988h-3.42l2.4 5.773a.7.7 0 0 1-.649.973H37.442a.7.7 0 0 1-.649-.973l2.4-5.773h-3.52a3.231 3.231 0 0 1-3.151-2.565l-1.539-7.427a.7.7 0 1 1 1.377-.285L33.9 26.4a1.819 1.819 0 0 0 1.774 1.444h14.282a1.894 1.894 0 0 0 1.344-.564 1.771 1.771 0 0 0 .517-1.28 1.821 1.821 0 0 0-1.812-1.777h-10a3.53 3.53 0 0 1-3.442-2.8L32.719 2.851a1.812 1.812 0 1 0-3.549.735l2.09 10.082a.7.7 0 1 1-1.377.285l-2.09-10.081a3.2 3.2 0 0 1 .462-2.42zm12.466 27.8L38.5 34.593h8.738l-2.224-5.34zm-2.7-21.745a2.665 2.665 0 0 0 2.662-2.662v-.61a2.662 2.662 0 1 0-5.323 0v.612a2.665 2.665 0 0 0 2.662 2.661zm-2.5 1.919a4.482 4.482 0 0 1 .81-.883 4.085 4.085 0 0 1-1.159-.8z" transform="translate(-27.725)" style="fill:#00d53a"/>
    </g>
</svg>
