<svg xmlns="http://www.w3.org/2000/svg" width="35.976" height="36" viewBox="0 0 35.976 36">
    <path data-name="info (1)" d="M35.956 10.471a18.021 18.021 0 0 0-25.485 25.485 18.042 18.042 0 0 0 25.485 0 18.1 18.1 0 0 0 0-25.485zm-1.342 24.143a16 16 0 1 1 .1-22.707 16.134 16.134 0 0 1-.1 22.707zM23.788 20.722a1.214 1.214 0 0 1 .383.862v9.2a.934.934 0 0 1-.383.862 1.337 1.337 0 0 1-.862.287 1.545 1.545 0 0 1-.862-.287 1.214 1.214 0 0 1-.383-.862v-9.2a.934.934 0 0 1 .383-.862 1.337 1.337 0 0 1 .862-.287 1.171 1.171 0 0 1 .862.287zm.287-5.174a1.23 1.23 0 0 1 .383.958 1.111 1.111 0 0 1-.383.958 1.309 1.309 0 0 1-1.054.383 1.309 1.309 0 0 1-1.054-.383 1.23 1.23 0 0 1-.383-.958 1.111 1.111 0 0 1 .383-.958 1.641 1.641 0 0 1 2.108 0z" transform="translate(-5.225 -5.225)" style="fill:#00d53a"/>
</svg>
