<svg xmlns="http://www.w3.org/2000/svg" width="38.822" height="36" viewBox="0 0 38.822 36">
    <path data-name="map (1)" d="M38.529 2.133a.7.7 0 0 0-.636-.1L25.378 6.208l-11.8-2.778a.614.614 0 0 0-.088 0 .718.718 0 0 0-.227 0L.553 6.253A.706.706 0 0 0 0 6.942v30.352A.707.707 0 0 0 .706 38a.753.753 0 0 0 .153-.016l12.569-2.794 11.86 2.093a.657.657 0 0 0 .123.011.708.708 0 0 0 .248-.047h.007l12.706-4.941a.708.708 0 0 0 .45-.659V2.706a.705.705 0 0 0-.293-.573zM1.412 7.507 12.706 5v28.9L1.412 36.413zm12.706-2.5L24.705 7.5v28.246l-10.588-1.868zm23.293 26.157-11.294 4.392V7.45l11.294-3.765z" transform="translate(0 -2)" style="fill:#00d53a"/>
</svg>
