<svg xmlns="http://www.w3.org/2000/svg" width="29.554" height="36" viewBox="0 0 29.554 36">
    <path data-name="Path 4" d="m102.1 50.012-.019-.03-1.849-2.845-.864-1.329a18.288 18.288 0 0 0-.731-5.384c-1.187-3.981-3.69-6.635-7.238-7.675a15.826 15.826 0 0 0-10.955.484 13.859 13.859 0 0 0-6.4 5.694 10.193 10.193 0 0 0-1 7 18.771 18.771 0 0 0 2.293 5.934 35.93 35.93 0 0 0 1.225 1.917c1.311 1.956 2.258 3.37 1.733 5.913-.632 3.059-1.9 7.256-1.912 7.3A.789.789 0 0 0 77.132 68h14.043a.789.789 0 0 0 .785-.875c-.31-2.84.067-3.914.438-4.315s1.052-.423 2.108-.39a9.267 9.267 0 0 0 1.856-.07h.015a4.316 4.316 0 0 0 .446-.1c2.244-.641 3.734-5.005 4.9-9.19.081-.291.164-.591.212-.745a2.017 2.017 0 0 0 .165-2.303zm-4.99-9.182a16.646 16.646 0 0 1 .67 5.147.79.79 0 0 0 .126.479l.607.934a17.427 17.427 0 0 1-8.449 3.217l-3.548-1.741c.942-1 2.29-3.094 2.739-7.609a5.155 5.155 0 0 1 2.854-4.091 9.241 9.241 0 0 1 2.353-.907 10.32 10.32 0 0 1 2.648 4.57zm-8.137 11-1.62 5.956-2-3.865a.789.789 0 0 0-.7-.426h-1.14a1.216 1.216 0 0 1-1.195-.993l-.5-2.708a1.216 1.216 0 0 1 .973-1.417s1.954 1.374 1.967 1.38l4.221 2.073zm-11.1 1.064c-.386-.576-.785-1.171-1.174-1.836-1.461-2.5-3.569-7.29-1.276-11.359 2.406-4.268 8.142-7.605 15.535-5.439a8.858 8.858 0 0 1 1.937.821 10.37 10.37 0 0 0-1.509.681 6.745 6.745 0 0 0-3.7 5.337c-.459 4.618-1.861 6.3-2.607 6.963l-1.614-1.14a.789.789 0 0 0-.456-.145 2.795 2.795 0 0 0-2.747 3.3l.423 2.276-1.985 1.819a41.805 41.805 0 0 0-.833-1.277zm12.442 13.53H78.188c.422-1.455 1.187-4.19 1.646-6.418a7.022 7.022 0 0 0-.376-4.392l1.815-1.657a2.794 2.794 0 0 0 2.235 1.118h.659l2.841 5.482.014-.007a1.656 1.656 0 0 0 .288.341 7.707 7.707 0 0 0 3.637 1.224c-.583.895-.786 2.266-.638 4.309zm6.079-5.693a2.8 2.8 0 0 1-.276.062 23.972 23.972 0 0 1-4.563-.19 8.131 8.131 0 0 1-3.1-.82l2.075-7.631a18.832 18.832 0 0 0 8.853-3.435l1.363 2.1a.527.527 0 0 1-.2.623c-.979.818-4.548 2.068-7.432 2.168a.79.79 0 0 0 .027 1.579h.028a19.8 19.8 0 0 0 6.767-1.6 43.341 43.341 0 0 1-.967 3.009 16.519 16.519 0 0 1-5.379.386.79.79 0 0 0-.166 1.57c.065.007.778.079 1.787.079a17.527 17.527 0 0 0 3.013-.245c-.9 1.888-1.566 2.274-1.831 2.349z" transform="translate(-72.829 -32.003)" style="fill:#00d53a"/>
</svg>
