<svg xmlns="http://www.w3.org/2000/svg" width="30.769" height="25" viewBox="0 0 30.769 25">
    <path data-name="twitter copy" d="M27.608 8.485a12.592 12.592 0 0 0 3.161-3.275 13.174 13.174 0 0 1-3.635 1 6.274 6.274 0 0 0 2.776-3.491 12.621 12.621 0 0 1-4 1.527A6.308 6.308 0 0 0 15 8.559 6.5 6.5 0 0 0 15.145 10a17.859 17.859 0 0 1-13-6.6 6.308 6.308 0 0 0 1.938 8.431 6.235 6.235 0 0 1-2.85-.777v.069a6.338 6.338 0 0 0 5.054 6.2 6.273 6.273 0 0 1-1.654.208 5.568 5.568 0 0 1-1.194-.108 6.37 6.37 0 0 0 5.894 4.395 12.68 12.68 0 0 1-7.822 2.69A11.93 11.93 0 0 1 0 24.419a17.764 17.764 0 0 0 9.677 2.831A17.831 17.831 0 0 0 27.608 8.485z" transform="translate(0 -2.25)" style="fill:#00d53a"/>
</svg>
