<svg xmlns="http://www.w3.org/2000/svg" width="25" height="25" viewBox="0 0 25 25">
    <path d="M12.5 0A12.549 12.549 0 0 0 0 12.5a12.417 12.417 0 0 0 1.769 6.4L0 25l6.1-1.769A12.417 12.417 0 0 0 12.5 25a12.5 12.5 0 0 0 0-25zm7.815 17.782-.582.582c-.823.823-2.715.758-3.931.523-4.043-.781-8.757-5.35-9.666-9.306-.45-1.96-.2-3.664.448-4.314l.582-.582a.823.823 0 0 1 1.163 0l2.327 2.327a.823.823 0 0 1 0 1.162l-.581.582a1.648 1.648 0 0 0 0 2.327l3.842 3.791a1.644 1.644 0 0 0 2.327 0l.582-.581a.86.86 0 0 1 1.164 0l2.326 2.326a.822.822 0 0 1-.001 1.163zm0 0" style="fill:#00d53a"/>
</svg>
