<svg xmlns="http://www.w3.org/2000/svg" width="21.4" height="20" viewBox="0 0 21.4 20">
    <path data-name="Path 16" d="M20.067 2h-2v2a.667.667 0 1 1-1.333 0V2H6.067v2a.667.667 0 1 1-1.334 0V2h-2A1.836 1.836 0 0 0 1 4v2.4h21.333V4a2.25 2.25 0 0 0-2.267-2zM1 7.8V20a1.809 1.809 0 0 0 1.8 2h17.333a2.25 2.25 0 0 0 2.267-2V7.8zM6.933 19h-1.6a.526.526 0 0 1-.533-.533V16.8a.526.526 0 0 1 .533-.533H7a.526.526 0 0 1 .533.533v1.667a.584.584 0 0 1-.6.533zm0-6h-1.6a.526.526 0 0 1-.533-.533V10.8a.526.526 0 0 1 .533-.533H7a.526.526 0 0 1 .533.533v1.667a.584.584 0 0 1-.6.533zm5.333 6H10.6a.526.526 0 0 1-.533-.533V16.8a.526.526 0 0 1 .533-.533h1.667a.526.526 0 0 1 .533.533v1.667a.491.491 0 0 1-.533.533zm0-6H10.6a.526.526 0 0 1-.533-.533V10.8a.526.526 0 0 1 .533-.533h1.667a.526.526 0 0 1 .533.533v1.667a.491.491 0 0 1-.533.533zm5.334 6h-1.667a.526.526 0 0 1-.533-.533V16.8a.526.526 0 0 1 .533-.533H17.6a.526.526 0 0 1 .533.533v1.667A.491.491 0 0 1 17.6 19zm0-6h-1.667a.526.526 0 0 1-.533-.533V10.8a.526.526 0 0 1 .533-.533H17.6a.526.526 0 0 1 .533.533v1.667A.491.491 0 0 1 17.6 13z" style="fill:#00d53a" transform="translate(-1 -2)"/>
</svg>
