<svg xmlns="http://www.w3.org/2000/svg" width="36" height="36" viewBox="0 0 36 36">
    <g data-name="Group 22">
        <g data-name="Group 21">
            <path data-name="Path 10" d="M18 0a18 18 0 1 0 18 18A18.021 18.021 0 0 0 18 0zm0 34.435A16.435 16.435 0 1 1 34.435 18 16.453 16.453 0 0 1 18 34.435z" style="fill:#00d53a"/>
        </g>
    </g>
    <g data-name="Group 24">
        <g data-name="Group 23">
            <path data-name="Path 11" d="m243.046 83.8-6.815-6.815v-12.2a.783.783 0 0 0-1.565 0V77.3a.788.788 0 0 0 .229.554l7.043 7.043a.783.783 0 0 0 1.108-1.107z" transform="translate(-217.449 -59.304)" style="fill:#00d53a"/>
        </g>
    </g>
</svg>
