<svg xmlns="http://www.w3.org/2000/svg" width="36.003" height="36" viewBox="0 0 36.003 36">
    <path data-name="Path 17" d="M12.323 37.225a.57.57 0 0 0 .806 0 2.212 2.212 0 1 1 3.127 3.127.57.57 0 0 0 0 .806L19.2 44.1a2.2 2.2 0 0 0 3.109 0l4.606-4.606L44.1 22.312a2.2 2.2 0 0 0 0-3.109l-2.941-2.941a.57.57 0 0 0-.806 0 2.212 2.212 0 1 1-3.127-3.127.571.571 0 0 0 0-.806l-2.945-2.942a2.2 2.2 0 0 0-3.11 0L9.382 31.174a2.2 2.2 0 0 0 0 3.109zm-2.135-5.244 4.2-4.2.4.4a.57.57 0 0 0 .806-.806l-.4-.4L26.968 15.2l.4.4a.57.57 0 0 0 .806-.806l-.4-.4 4.2-4.2a1.084 1.084 0 0 1 1.5 0l2.573 2.573a3.353 3.353 0 0 0 4.672 4.673l2.573 2.573a1.057 1.057 0 0 1 0 1.5l-4.2 4.2-.4-.4a.57.57 0 0 0-.808.8l.4.4-11.77 11.77-.4-.4a.57.57 0 0 0-.807.806l.4.4-4.2 4.2a1.06 1.06 0 0 1-1.5 0l-2.573-2.573a3.353 3.353 0 0 0-4.674-4.666l-2.573-2.573a1.06 1.06 0 0 1 0-1.5z" transform="translate(-8.739 -8.743)" style="fill:#00d53a"/>
    <path data-name="Path 22" d="M92.135 54.333a.57.57 0 0 0 .806-.806l-11.5-11.5a.57.57 0 0 0-.806.806z" transform="translate(-62.496 -36.465)" style="fill:#00d53a"/>
</svg>
